<svg width="193" height="193" viewBox="0 0 193 193" fill="none" xmlns="http://www.w3.org/2000/svg">
<circle cx="96.5" cy="96.5" r="96.5" fill="white"/>
<path d="M38.2524 95.468C38.2524 97.568 37.5524 99.388 36.1524 100.928C34.7524 102.468 32.9884 103.224 30.8324 103.224C29.9924 103.224 29.0684 103 28.0884 102.552C27.1084 102.104 26.3804 101.488 25.9044 100.704V103H22.6564V80.208H25.9884V90.26C26.4644 89.476 27.1644 88.86 28.1444 88.44C29.1244 87.992 30.0484 87.768 30.9164 87.768C33.1004 87.768 34.8644 88.552 36.2084 90.12C37.5804 91.688 38.2524 93.48 38.2524 95.468ZM27.1644 92.136C26.3524 93.06 25.9324 94.18 25.9324 95.496C25.9324 96.812 26.3524 97.932 27.1644 98.856C28.0044 99.752 29.0964 100.2 30.4124 100.2C31.7284 100.2 32.8204 99.752 33.6324 98.856C34.4724 97.932 34.8924 96.812 34.8924 95.496C34.8924 94.18 34.4724 93.06 33.6324 92.136C32.8204 91.212 31.7284 90.764 30.4124 90.764C29.0964 90.764 28.0044 91.212 27.1644 92.136ZM48.771 87.992V91.408C48.491 91.352 48.183 91.324 47.819 91.324C45.271 91.324 43.927 92.808 43.927 95.412V103H40.595V88.048H43.843V90.428C44.767 88.748 46.139 87.908 47.959 87.908C48.323 87.908 48.575 87.936 48.771 87.992ZM58.7337 92.864C58.7337 91.632 57.6697 90.624 55.7937 90.624C54.0857 90.624 52.8257 91.408 52.0697 93.004L49.5217 91.548C50.6977 89 52.8257 87.74 55.8777 87.74C58.6777 87.74 60.5537 88.748 61.4777 90.792C61.8137 91.548 61.9818 92.444 61.9818 93.48V103H58.7057V100.956C57.7817 102.496 56.3257 103.252 54.3097 103.252C52.8537 103.252 51.6497 102.832 50.6977 102.02C49.7457 101.208 49.2697 100.144 49.2697 98.856V98.688C49.2697 95.216 52.8537 94.124 55.4857 94.124H57.3337C58.2577 94.124 58.7337 93.704 58.7337 92.864ZM58.7057 96.952V96.476H55.4857C54.7857 96.476 54.1137 96.672 53.4977 97.036C52.9097 97.4 52.6017 97.904 52.6017 98.548C52.6017 99.78 53.5537 100.592 54.9817 100.592C57.2497 100.592 58.7057 99.192 58.7057 96.952ZM78.5912 103H75.2592V94.628C75.2592 92.388 74.1672 90.904 71.9552 90.904C69.8552 90.904 68.5112 92.416 68.5112 94.684V103H65.1792V88.048H68.4272V90.064C69.5752 88.524 71.0872 87.74 72.9912 87.74C76.6592 87.74 78.5912 90.204 78.5912 93.788V103ZM80.742 95.496C80.742 93.48 81.414 91.688 82.786 90.12C84.158 88.552 85.978 87.768 88.19 87.768C89.002 87.768 89.87 87.964 90.822 88.384C91.802 88.776 92.53 89.364 93.034 90.176V80.208H96.366V103H93.118V100.676C92.586 101.544 91.83 102.188 90.794 102.608C89.786 103.028 88.89 103.224 88.106 103.224C86.006 103.224 84.242 102.468 82.842 100.928C81.442 99.388 80.742 97.568 80.742 95.496ZM88.61 90.764C87.294 90.764 86.202 91.212 85.362 92.136C84.55 93.06 84.13 94.18 84.13 95.496C84.13 96.812 84.55 97.932 85.362 98.856C86.202 99.752 87.294 100.2 88.61 100.2C89.926 100.2 91.018 99.752 91.83 98.856C92.67 97.932 93.09 96.812 93.09 95.496C93.09 94.18 92.67 93.06 91.83 92.136C90.99 91.212 89.926 90.764 88.61 90.764ZM114.519 92.864C114.519 91.632 113.455 90.624 111.579 90.624C109.871 90.624 108.611 91.408 107.855 93.004L105.307 91.548C106.483 89 108.611 87.74 111.663 87.74C114.463 87.74 116.339 88.748 117.263 90.792C117.599 91.548 117.767 92.444 117.767 93.48V103H114.491V100.956C113.567 102.496 112.111 103.252 110.095 103.252C108.639 103.252 107.435 102.832 106.483 102.02C105.531 101.208 105.055 100.144 105.055 98.856V98.688C105.055 95.216 108.639 94.124 111.271 94.124H113.119C114.043 94.124 114.519 93.704 114.519 92.864ZM114.491 96.952V96.476H111.271C110.571 96.476 109.899 96.672 109.283 97.036C108.695 97.4 108.387 97.904 108.387 98.548C108.387 99.78 109.339 100.592 110.767 100.592C113.035 100.592 114.491 99.192 114.491 96.952ZM120.797 88.048H124.129V96.42C124.129 98.66 125.221 100.144 127.433 100.144C129.533 100.144 130.877 98.632 130.877 96.364V88.048H134.209V103H130.961V100.984C129.813 102.524 128.301 103.308 126.397 103.308C122.785 103.308 120.797 100.816 120.797 97.232V88.048ZM136.528 95.496C136.528 93.48 137.2 91.688 138.572 90.12C139.944 88.552 141.764 87.768 143.976 87.768C144.788 87.768 145.656 87.964 146.608 88.384C147.588 88.776 148.316 89.364 148.82 90.176V80.208H152.152V103H148.904V100.676C148.372 101.544 147.616 102.188 146.58 102.608C145.572 103.028 144.676 103.224 143.892 103.224C141.792 103.224 140.028 102.468 138.628 100.928C137.228 99.388 136.528 97.568 136.528 95.496ZM144.396 90.764C143.08 90.764 141.988 91.212 141.148 92.136C140.336 93.06 139.916 94.18 139.916 95.496C139.916 96.812 140.336 97.932 141.148 98.856C141.988 99.752 143.08 100.2 144.396 100.2C145.712 100.2 146.804 99.752 147.616 98.856C148.456 97.932 148.876 96.812 148.876 95.496C148.876 94.18 148.456 93.06 147.616 92.136C146.776 91.212 145.712 90.764 144.396 90.764ZM155.614 84.744C154.746 83.876 154.746 82.532 155.614 81.664C156.482 80.768 157.826 80.768 158.694 81.664C159.562 82.532 159.562 83.876 158.694 84.744C157.826 85.612 156.482 85.612 155.614 84.744ZM158.834 88.048V103H155.502V88.048H158.834ZM170.323 91.044H166.655V97.652C166.655 99.444 167.523 100.144 169.231 100.144C169.567 100.144 169.931 100.116 170.295 100.032V102.86C169.763 103.056 169.147 103.168 168.503 103.168C165.227 103.168 163.323 101.432 163.323 98.184V91.044H160.579V88.048H163.323V83.428H166.655V88.048H170.323V91.044Z" fill="#0FBBEF"/>
</svg>
