<svg width="193" height="193" viewBox="0 0 193 193" fill="none" xmlns="http://www.w3.org/2000/svg">
<circle cx="96.5" cy="96.5" r="96.5" fill="white"/>
<path d="M55.5915 67.744C54.7235 66.876 54.7235 65.532 55.5915 64.664C56.4595 63.768 57.8035 63.768 58.6715 64.664C59.5395 65.532 59.5395 66.876 58.6715 67.744C57.8035 68.612 56.4595 68.612 55.5915 67.744ZM58.8115 71.048V86H55.4795V71.048H58.8115ZM75.2844 86H71.9804V77.6C71.9804 75.36 70.9724 73.876 68.7604 73.876C66.7444 73.876 65.4844 75.416 65.4844 77.684V86H62.1524V71.048H65.4004V73.064C66.5764 71.496 68.0604 70.712 69.8524 70.712C72.0084 70.712 73.5484 71.524 74.4724 73.176C76.0124 71.496 77.4684 70.712 79.6804 70.712C83.2924 70.712 85.1124 73.176 85.1124 76.76V86H81.7804V77.572C81.7804 75.304 80.8004 73.876 78.5884 73.876C76.5444 73.876 75.2844 75.388 75.2844 77.656V86ZM103.89 78.468C103.89 80.568 103.19 82.388 101.79 83.928C100.39 85.468 98.6261 86.224 96.4701 86.224C95.7141 86.224 94.8461 86.028 93.8661 85.636C92.8861 85.216 92.1581 84.628 91.6261 83.816V93.364H88.2941V71.048H91.5421V73.372C92.1021 72.448 92.8581 71.804 93.8381 71.384C94.8181 70.964 95.7141 70.768 96.5541 70.768C98.7381 70.768 100.502 71.552 101.846 73.12C103.218 74.688 103.89 76.48 103.89 78.468ZM92.8021 75.136C91.9901 76.06 91.5701 77.18 91.5701 78.496C91.5701 79.812 91.9901 80.932 92.8021 81.856C93.6421 82.752 94.7341 83.2 96.0501 83.2C97.3661 83.2 98.4581 82.752 99.2701 81.856C100.11 80.932 100.53 79.812 100.53 78.496C100.53 77.18 100.11 76.06 99.2701 75.136C98.4581 74.212 97.3661 73.764 96.0501 73.764C94.7341 73.764 93.6421 74.212 92.8021 75.136ZM106.233 86V63.208H109.565V86H106.233ZM126.654 79.504H115.314C115.342 80.624 115.79 81.548 116.658 82.304C117.526 83.032 118.534 83.396 119.682 83.396C121.558 83.396 122.902 82.612 123.714 81.072L126.122 82.668C124.862 84.992 122.426 86.28 119.738 86.28C117.526 86.28 115.65 85.552 114.138 84.068C112.654 82.584 111.898 80.708 111.898 78.496C111.898 76.34 112.626 74.52 114.054 73.008C115.482 71.496 117.274 70.74 119.43 70.74C121.698 70.74 123.49 71.44 124.778 72.868C126.066 74.296 126.71 76.144 126.71 78.468C126.71 78.916 126.682 79.252 126.654 79.504ZM119.43 73.596C117.386 73.596 115.79 74.94 115.482 76.984H123.322C123.21 74.884 121.558 73.596 119.43 73.596ZM128.704 78.608V75.22H137.832V78.608H128.704ZM43.7543 120H40.4503V111.6C40.4503 109.36 39.4423 107.876 37.2303 107.876C35.2143 107.876 33.9543 109.416 33.9543 111.684V120H30.6223V105.048H33.8703V107.064C35.0463 105.496 36.5303 104.712 38.3223 104.712C40.4783 104.712 42.0183 105.524 42.9423 107.176C44.4823 105.496 45.9383 104.712 48.1503 104.712C51.7623 104.712 53.5823 107.176 53.5823 110.76V120H50.2503V111.572C50.2503 109.304 49.2703 107.876 47.0583 107.876C45.0143 107.876 43.7543 109.388 43.7543 111.656V120ZM70.5121 113.504H59.1721C59.2001 114.624 59.6481 115.548 60.5161 116.304C61.3841 117.032 62.3921 117.396 63.5401 117.396C65.4161 117.396 66.7601 116.612 67.5721 115.072L69.9801 116.668C68.7201 118.992 66.2841 120.28 63.5961 120.28C61.3841 120.28 59.5081 119.552 57.9961 118.068C56.5121 116.584 55.7561 114.708 55.7561 112.496C55.7561 110.34 56.4841 108.52 57.9121 107.008C59.3401 105.496 61.1321 104.74 63.2881 104.74C65.5561 104.74 67.3481 105.44 68.6361 106.868C69.9241 108.296 70.5681 110.144 70.5681 112.468C70.5681 112.916 70.5401 113.252 70.5121 113.504ZM63.2881 107.596C61.2441 107.596 59.6481 108.94 59.3401 110.984H67.1801C67.0681 108.884 65.4161 107.596 63.2881 107.596ZM86.2826 120H82.9506V111.628C82.9506 109.388 81.8586 107.904 79.6466 107.904C77.5466 107.904 76.2026 109.416 76.2026 111.684V120H72.8706V105.048H76.1186V107.064C77.2666 105.524 78.7786 104.74 80.6826 104.74C84.3506 104.74 86.2826 107.204 86.2826 110.788V120ZM97.6174 108.044H93.9494V114.652C93.9494 116.444 94.8174 117.144 96.5254 117.144C96.8614 117.144 97.2254 117.116 97.5894 117.032V119.86C97.0574 120.056 96.4414 120.168 95.7974 120.168C92.5214 120.168 90.6174 118.432 90.6174 115.184V108.044H87.8734V105.048H90.6174V100.428H93.9494V105.048H97.6174V108.044ZM108.538 109.864C108.538 108.632 107.474 107.624 105.598 107.624C103.89 107.624 102.63 108.408 101.874 110.004L99.3258 108.548C100.502 106 102.63 104.74 105.682 104.74C108.482 104.74 110.358 105.748 111.282 107.792C111.618 108.548 111.786 109.444 111.786 110.48V120H108.51V117.956C107.586 119.496 106.13 120.252 104.114 120.252C102.658 120.252 101.454 119.832 100.502 119.02C99.5498 118.208 99.0738 117.144 99.0738 115.856V115.688C99.0738 112.216 102.658 111.124 105.29 111.124H107.138C108.062 111.124 108.538 110.704 108.538 109.864ZM108.51 113.952V113.476H105.29C104.59 113.476 103.918 113.672 103.302 114.036C102.714 114.4 102.406 114.904 102.406 115.548C102.406 116.78 103.358 117.592 104.786 117.592C107.054 117.592 108.51 116.192 108.51 113.952ZM122.995 108.044H119.327V114.652C119.327 116.444 120.195 117.144 121.903 117.144C122.239 117.144 122.603 117.116 122.967 117.032V119.86C122.435 120.056 121.819 120.168 121.175 120.168C117.899 120.168 115.995 118.432 115.995 115.184V108.044H113.251V105.048H115.995V100.428H119.327V105.048H122.995V108.044ZM125.487 101.744C124.619 100.876 124.619 99.532 125.487 98.664C126.355 97.768 127.699 97.768 128.567 98.664C129.435 99.532 129.435 100.876 128.567 101.744C127.699 102.612 126.355 102.612 125.487 101.744ZM128.707 105.048V120H125.375V105.048H128.707ZM138.936 104.74C141.092 104.74 142.94 105.468 144.48 106.952C146.02 108.436 146.776 110.256 146.776 112.44C146.776 114.652 146.02 116.5 144.48 118.012C142.968 119.496 141.12 120.252 138.908 120.252C136.724 120.252 134.848 119.496 133.308 118.012C131.768 116.528 131.012 114.68 131.012 112.496C131.012 110.312 131.796 108.464 133.336 106.98C134.876 105.496 136.752 104.74 138.936 104.74ZM135.66 109.136C134.848 110.032 134.428 111.124 134.428 112.44C134.428 113.756 134.848 114.876 135.688 115.828C136.528 116.752 137.62 117.228 138.936 117.228C140.252 117.228 141.344 116.78 142.156 115.856C142.968 114.932 143.388 113.812 143.388 112.496C143.388 111.18 142.968 110.06 142.128 109.136C141.316 108.212 140.224 107.764 138.908 107.764C137.592 107.764 136.5 108.212 135.66 109.136ZM162.551 120H159.219V111.628C159.219 109.388 158.127 107.904 155.915 107.904C153.815 107.904 152.471 109.416 152.471 111.684V120H149.139V105.048H152.387V107.064C153.535 105.524 155.047 104.74 156.951 104.74C160.619 104.74 162.551 107.204 162.551 110.788V120Z" fill="#0FBBEF"/>
</svg>
