<svg width="193" height="193" viewBox="0 0 193 193" fill="none" xmlns="http://www.w3.org/2000/svg">
<circle cx="96.5" cy="96.5" r="96.5" fill="white"/>
<path d="M63.6959 87.992V91.408C63.4159 91.352 63.1079 91.324 62.7439 91.324C60.1959 91.324 58.8519 92.808 58.8519 95.412V103H55.5199V88.048H58.7679V90.428C59.6919 88.748 61.0639 87.908 62.8839 87.908C63.2479 87.908 63.4999 87.936 63.6959 87.992ZM78.812 96.504H67.472C67.5 97.624 67.948 98.548 68.816 99.304C69.684 100.032 70.692 100.396 71.84 100.396C73.716 100.396 75.06 99.612 75.872 98.072L78.28 99.668C77.02 101.992 74.584 103.28 71.896 103.28C69.684 103.28 67.808 102.552 66.296 101.068C64.812 99.584 64.056 97.708 64.056 95.496C64.056 93.34 64.784 91.52 66.212 90.008C67.64 88.496 69.432 87.74 71.588 87.74C73.856 87.74 75.648 88.44 76.936 89.868C78.224 91.296 78.868 93.144 78.868 95.468C78.868 95.916 78.84 96.252 78.812 96.504ZM71.588 90.596C69.544 90.596 67.948 91.94 67.64 93.984H75.48C75.368 91.884 73.716 90.596 71.588 90.596ZM86.0145 103.252C83.0465 103.252 80.9745 101.992 79.8265 99.5L82.4305 98.044C83.2425 99.64 84.4185 100.452 86.0145 100.452C87.2745 100.452 88.3665 99.808 88.3665 98.8C88.3665 97.932 87.3305 97.26 85.2865 96.84C83.6345 96.504 82.3745 95.916 81.5625 95.048C80.8625 94.292 80.4985 93.396 80.4985 92.332C80.4985 90.988 81.0305 89.896 82.1225 89.028C83.2145 88.16 84.4745 87.74 85.9305 87.74C88.6185 87.74 90.4945 88.86 91.5305 91.1L88.9545 92.556C88.2825 91.212 87.2465 90.54 85.8185 90.54C84.7825 90.54 83.7185 91.184 83.7185 91.996C83.7185 92.976 84.5585 93.48 86.4905 93.9C89.8785 94.656 91.6705 96.28 91.6705 98.604C91.6705 99.976 91.1385 101.096 90.1025 101.964C89.0665 102.832 87.6945 103.252 86.0145 103.252ZM93.9372 88.048H97.2692V96.42C97.2692 98.66 98.3612 100.144 100.573 100.144C102.673 100.144 104.017 98.632 104.017 96.364V88.048H107.349V103H104.101V100.984C102.953 102.524 101.441 103.308 99.5372 103.308C95.9252 103.308 93.9372 100.816 93.9372 97.232V88.048ZM110.704 103V80.208H114.036V103H110.704ZM125.525 91.044H121.857V97.652C121.857 99.444 122.725 100.144 124.433 100.144C124.769 100.144 125.133 100.116 125.497 100.032V102.86C124.965 103.056 124.349 103.168 123.705 103.168C120.429 103.168 118.525 101.432 118.525 98.184V91.044H115.781V88.048H118.525V83.428H121.857V88.048H125.525V91.044ZM132.749 103.252C129.781 103.252 127.709 101.992 126.561 99.5L129.165 98.044C129.977 99.64 131.153 100.452 132.749 100.452C134.009 100.452 135.101 99.808 135.101 98.8C135.101 97.932 134.065 97.26 132.021 96.84C130.369 96.504 129.109 95.916 128.297 95.048C127.597 94.292 127.233 93.396 127.233 92.332C127.233 90.988 127.765 89.896 128.857 89.028C129.949 88.16 131.209 87.74 132.665 87.74C135.353 87.74 137.229 88.86 138.265 91.1L135.689 92.556C135.017 91.212 133.981 90.54 132.553 90.54C131.517 90.54 130.453 91.184 130.453 91.996C130.453 92.976 131.293 93.48 133.225 93.9C136.613 94.656 138.405 96.28 138.405 98.604C138.405 99.976 137.873 101.096 136.837 101.964C135.801 102.832 134.429 103.252 132.749 103.252Z" fill="#0FBBEF"/>
</svg>
