<svg width="193" height="193" viewBox="0 0 193 193" fill="none" xmlns="http://www.w3.org/2000/svg">
<circle cx="96.5" cy="96.5" r="96.5" fill="white"/>
<path d="M48.5567 103.252C45.5887 103.252 43.5167 101.992 42.3687 99.5L44.9727 98.044C45.7847 99.64 46.9607 100.452 48.5567 100.452C49.8167 100.452 50.9087 99.808 50.9087 98.8C50.9087 97.932 49.8727 97.26 47.8287 96.84C46.1767 96.504 44.9167 95.916 44.1047 95.048C43.4047 94.292 43.0407 93.396 43.0407 92.332C43.0407 90.988 43.5727 89.896 44.6647 89.028C45.7567 88.16 47.0167 87.74 48.4727 87.74C51.1607 87.74 53.0367 88.86 54.0727 91.1L51.4967 92.556C50.8247 91.212 49.7887 90.54 48.3607 90.54C47.3247 90.54 46.2607 91.184 46.2607 91.996C46.2607 92.976 47.1007 93.48 49.0327 93.9C52.4207 94.656 54.2127 96.28 54.2127 98.604C54.2127 99.976 53.6807 101.096 52.6447 101.964C51.6087 102.832 50.2367 103.252 48.5567 103.252ZM64.5767 91.044H60.9087V97.652C60.9087 99.444 61.7767 100.144 63.4847 100.144C63.8207 100.144 64.1847 100.116 64.5487 100.032V102.86C64.0167 103.056 63.4007 103.168 62.7567 103.168C59.4807 103.168 57.5767 101.432 57.5767 98.184V91.044H54.8327V88.048H57.5767V83.428H60.9087V88.048H64.5767V91.044ZM75.1331 87.992V91.408C74.8531 91.352 74.5451 91.324 74.1811 91.324C71.6331 91.324 70.2891 92.808 70.2891 95.412V103H66.9571V88.048H70.2051V90.428C71.1291 88.748 72.5011 87.908 74.3211 87.908C74.6851 87.908 74.9371 87.936 75.1331 87.992ZM85.0959 92.864C85.0959 91.632 84.0319 90.624 82.1559 90.624C80.4479 90.624 79.1879 91.408 78.4319 93.004L75.8839 91.548C77.0599 89 79.1879 87.74 82.2399 87.74C85.0399 87.74 86.9159 88.748 87.8399 90.792C88.1759 91.548 88.3439 92.444 88.3439 93.48V103H85.0679V100.956C84.1439 102.496 82.6879 103.252 80.6719 103.252C79.2159 103.252 78.0119 102.832 77.0599 102.02C76.1079 101.208 75.6319 100.144 75.6319 98.856V98.688C75.6319 95.216 79.2159 94.124 81.8479 94.124H83.6959C84.6199 94.124 85.0959 93.704 85.0959 92.864ZM85.0679 96.952V96.476H81.8479C81.1479 96.476 80.4759 96.672 79.8599 97.036C79.2719 97.4 78.9639 97.904 78.9639 98.548C78.9639 99.78 79.9159 100.592 81.3439 100.592C83.6119 100.592 85.0679 99.192 85.0679 96.952ZM99.5526 91.044H95.8846V97.652C95.8846 99.444 96.7526 100.144 98.4606 100.144C98.7966 100.144 99.1606 100.116 99.5246 100.032V102.86C98.9926 103.056 98.3766 103.168 97.7326 103.168C94.4566 103.168 92.5526 101.432 92.5526 98.184V91.044H89.8086V88.048H92.5526V83.428H95.8846V88.048H99.5526V91.044ZM115.435 96.504H104.095C104.123 97.624 104.571 98.548 105.439 99.304C106.307 100.032 107.315 100.396 108.463 100.396C110.339 100.396 111.683 99.612 112.495 98.072L114.903 99.668C113.643 101.992 111.207 103.28 108.519 103.28C106.307 103.28 104.431 102.552 102.919 101.068C101.435 99.584 100.679 97.708 100.679 95.496C100.679 93.34 101.407 91.52 102.835 90.008C104.263 88.496 106.055 87.74 108.211 87.74C110.479 87.74 112.271 88.44 113.559 89.868C114.847 91.296 115.491 93.144 115.491 95.468C115.491 95.916 115.463 96.252 115.435 96.504ZM108.211 90.596C106.167 90.596 104.571 91.94 104.263 93.984H112.103C111.991 91.884 110.339 90.596 108.211 90.596ZM124.038 103.112C121.938 103.112 120.174 102.356 118.802 100.844C117.43 99.332 116.758 97.54 116.758 95.468C116.758 93.48 117.43 91.716 118.774 90.148C120.146 88.58 121.938 87.796 124.15 87.796C124.962 87.796 125.83 88.02 126.782 88.44C127.734 88.86 128.49 89.476 129.022 90.316V88.048H132.27V102.804C132.27 105.156 131.542 107.032 130.114 108.404C128.686 109.776 126.81 110.476 124.458 110.476C120.818 110.476 118.298 108.964 116.926 105.94L119.698 104.344C120.734 106.444 122.302 107.508 124.402 107.508C127.006 107.508 128.938 105.94 128.938 102.944V100.592C128.406 101.46 127.65 102.076 126.67 102.496C125.69 102.916 124.822 103.112 124.038 103.112ZM128.994 95.412C128.994 94.096 128.574 93.004 127.762 92.108C126.95 91.212 125.858 90.764 124.542 90.764C123.226 90.764 122.134 91.212 121.322 92.108C120.51 92.976 120.09 94.096 120.09 95.412C120.09 96.728 120.51 97.848 121.322 98.772C122.162 99.668 123.226 100.116 124.542 100.116C125.858 100.116 126.922 99.668 127.734 98.772C128.574 97.848 128.994 96.728 128.994 95.412ZM137.639 88.048L142.287 97.848L146.599 88.048H150.211L139.935 110.364H136.379L140.495 101.32L133.831 88.048H137.639Z" fill="#0FBBEF"/>
</svg>
